<svg width="225" height="225" viewBox="0 0 225 225" fill="none" xmlns="http://www.w3.org/2000/svg">
<path d="M175.076 224.681L132.766 182.371C121.485 171.09 103.196 171.09 91.9149 182.371L49.6048 224.681L29.1793 204.256L71.4894 161.946L72.0207 161.421C94.4436 139.559 130.237 139.559 152.66 161.421L153.191 161.946L195.502 204.256L175.076 224.681Z" fill="#0B0B0B"/>
<path d="M63.2603 72.0207C85.1221 94.4435 85.1221 130.237 63.2603 152.66L62.7356 153.191L20.4255 195.502L0 175.076L42.3101 132.766C53.5908 121.485 53.5908 103.196 42.3101 91.9149L0 49.6048L20.4255 29.1793L62.7356 71.4894L63.2603 72.0207Z" fill="#0B0B0B"/>
<path d="M182.371 91.9153C171.09 103.196 171.09 121.486 182.371 132.766L224.681 175.076L204.255 195.502L161.945 153.192L161.421 152.66C139.559 130.238 139.559 94.444 161.421 72.0212L161.945 71.4898L204.255 29.1797L224.681 49.6052L182.371 91.9153Z" fill="#0B0B0B"/>
<path d="M153.191 62.7356L152.66 63.2603C130.237 85.1221 94.4436 85.1221 72.0207 63.2603L71.4894 62.7356L29.1793 20.4255L49.6048 0L91.9149 42.3101C103.196 53.5908 121.485 53.5908 132.766 42.3101L175.076 0L195.502 20.4255L153.191 62.7356Z" fill="#0B0B0B"/>
</svg>
