<svg width="678" height="225" viewBox="0 0 678 225" fill="none" xmlns="http://www.w3.org/2000/svg">
<path d="M175.076 224.681L132.766 182.371C121.485 171.09 103.196 171.09 91.9149 182.371L49.6048 224.681L29.1793 204.256L71.4894 161.946L72.0207 161.421C94.4436 139.559 130.237 139.559 152.66 161.421L153.191 161.946L195.502 204.256L175.076 224.681Z" fill="#0B0B0B"/>
<path d="M63.2603 72.0207C85.1221 94.4435 85.1221 130.237 63.2603 152.66L62.7356 153.191L20.4255 195.502L0 175.076L42.3101 132.766C53.5908 121.485 53.5908 103.196 42.3101 91.9149L0 49.6048L20.4255 29.1793L62.7356 71.4894L63.2603 72.0207Z" fill="#0B0B0B"/>
<path d="M182.371 91.9153C171.09 103.196 171.09 121.486 182.371 132.766L224.681 175.076L204.255 195.502L161.945 153.192L161.421 152.66C139.559 130.238 139.559 94.444 161.421 72.0212L161.945 71.4898L204.255 29.1797L224.681 49.6052L182.371 91.9153Z" fill="#0B0B0B"/>
<path d="M153.191 62.7356L152.66 63.2603C130.237 85.1221 94.4436 85.1221 72.0207 63.2603L71.4894 62.7356L29.1793 20.4255L49.6048 0L91.9149 42.3101C103.196 53.5908 121.485 53.5908 132.766 42.3101L175.076 0L195.502 20.4255L153.191 62.7356Z" fill="#0B0B0B"/>
<path d="M673.41 72.3425L631.647 132.201L677.217 193.991H644.777L610.241 146.38L576.753 193.991H546.023L590.269 132.588L547.458 72.3425H579.898L611.675 118.575L642.68 72.3425H673.41Z" fill="#0B0B0B"/>
<path d="M541.992 30.6897V58.9365H513.414V30.6897H541.992ZM541.551 72.3427V193.991H513.855V72.3427H541.551Z" fill="#0B0B0B"/>
<path d="M457.226 136.063V193.991H429.531V72.3425H457.226V112.892C462.247 87.7348 476.37 72.3425 501.141 72.3425H507.541V98.5481H498.383C467.047 98.5481 457.226 110.575 457.226 136.063Z" fill="#0B0B0B"/>
<path d="M287.359 36.2065H365.204C396.043 36.2065 417.394 52.5367 417.394 76.6458C417.394 95.9 403.822 110.189 385.175 112.451C407.905 114.547 424.069 130.16 424.069 151.511C424.069 176.999 401.119 193.991 368.128 193.991H287.359V36.2065ZM362.886 103.072C378.279 103.072 388.595 94.5207 388.595 81.2249C388.595 68.3704 378.886 60.9225 362.721 60.9225H316.379V103.072H362.886ZM316.379 169.275H365.259C385.175 169.275 395.161 162.214 395.161 147.594C395.161 132.974 385.23 126.023 365.314 126.023H316.379V169.275Z" fill="#0B0B0B"/>
</svg>
