<svg width="390" height="164" viewBox="0 0 390 164" fill="none" xmlns="http://www.w3.org/2000/svg">
<path d="M386.05 41.6528L344.287 101.512L389.857 163.302H357.418L322.881 115.69L289.393 163.302H258.664L302.91 101.898L260.098 41.6528H292.538L324.316 87.8849L355.321 41.6528H386.05Z" fill="#0B0B0B"/>
<path d="M254.632 0V28.2468H226.055V0H254.632ZM254.191 41.653V163.302H226.496V41.653H254.191Z" fill="#0B0B0B"/>
<path d="M169.867 105.374V163.302H142.172V41.6528H169.867V82.2024C174.887 57.0451 189.011 41.6528 213.782 41.6528H220.182V67.8584H211.023C179.687 67.8584 169.867 79.8853 169.867 105.374Z" fill="#0B0B0B"/>
<path d="M0 5.51685H77.8442C108.684 5.51685 130.035 21.847 130.035 45.9561C130.035 65.2103 116.463 79.4992 97.8156 81.7611C120.545 83.8576 136.71 99.4705 136.71 120.821C136.71 146.309 113.76 163.302 80.7682 163.302H0V5.51685ZM75.5271 72.3823C90.9194 72.3823 101.236 63.831 101.236 50.5352C101.236 37.6807 91.5262 30.2328 75.3616 30.2328H29.0192V72.3823H75.5271ZM29.0192 138.586H77.8994C97.8156 138.586 107.801 131.524 107.801 116.904C107.801 102.284 97.8707 95.3328 77.9545 95.3328H29.0192V138.586Z" fill="#0B0B0B"/>
</svg>
