<svg width="1024" height="1024" viewBox="0 0 1024 1024" fill="none" xmlns="http://www.w3.org/2000/svg">
<rect width="1024" height="1024" fill="white"/>
<path d="M348.467 624.34L306.157 582.03C294.876 570.75 276.586 570.75 265.306 582.03L222.995 624.34L202.57 603.915L244.88 561.605L245.411 561.08C267.834 539.218 303.628 539.218 326.051 561.08L326.582 561.605L368.892 603.915L348.467 624.34Z" fill="#0B0B0B"/>
<path d="M236.651 471.68C258.513 494.103 258.513 529.896 236.651 552.319L236.126 552.851L193.816 595.161L173.391 574.735L215.701 532.425C226.981 521.144 226.981 502.855 215.701 491.574L173.391 449.264L193.816 428.838L236.126 471.149L236.651 471.68Z" fill="#0B0B0B"/>
<path d="M355.761 491.574C344.481 502.855 344.481 521.145 355.761 532.425L398.071 574.736L377.646 595.161L335.336 552.851L334.811 552.32C312.949 529.897 312.949 494.103 334.811 471.68L335.336 471.149L377.646 428.839L398.071 449.264L355.761 491.574Z" fill="#0B0B0B"/>
<path d="M326.582 462.395L326.051 462.919C303.628 484.781 267.834 484.781 245.411 462.919L244.88 462.395L202.57 420.085L222.995 399.659L265.306 441.969C276.586 453.25 294.876 453.25 306.157 441.969L348.467 399.659L368.892 420.085L326.582 462.395Z" fill="#0B0B0B"/>
<path d="M846.8 472.001L805.037 531.86L850.607 593.65H818.168L783.631 546.039L750.143 593.65H719.414L763.66 532.247L720.848 472.001H753.288L785.066 518.234L816.071 472.001H846.8Z" fill="#0B0B0B"/>
<path d="M715.382 430.349V458.595H686.805V430.349H715.382ZM714.941 472.002V593.65H687.246V472.002H714.941Z" fill="#0B0B0B"/>
<path d="M630.617 535.722V593.65H602.922V472.001H630.617V512.551C635.637 487.394 649.761 472.001 674.532 472.001H680.932V498.207H671.773C640.437 498.207 630.617 510.234 630.617 535.722Z" fill="#0B0B0B"/>
<path d="M460.75 435.866H538.594C569.434 435.866 590.785 452.196 590.785 476.305C590.785 495.559 577.213 509.848 558.566 512.11C581.295 514.206 597.46 529.819 597.46 551.17C597.46 576.658 574.51 593.651 541.518 593.651H460.75V435.866ZM536.277 502.731C551.669 502.731 561.986 494.18 561.986 480.884C561.986 468.03 552.276 460.582 536.112 460.582H489.769V502.731H536.277ZM489.769 568.935H538.649C558.566 568.935 568.551 561.873 568.551 547.253C568.551 532.633 558.621 525.682 538.705 525.682H489.769V568.935Z" fill="#0B0B0B"/>
</svg>
