<svg width="1024" height="1024" viewBox="0 0 1024 1024" fill="none" xmlns="http://www.w3.org/2000/svg">
<rect width="1024" height="1024" fill="#0B0B0B"/>
<path d="M654.96 768L558.545 671.584C532.839 645.878 491.16 645.878 465.454 671.584L369.039 768L322.493 721.455L418.909 625.039L420.12 623.843C471.216 574.025 552.783 574.025 603.879 623.843L605.09 625.039L701.506 721.455L654.96 768Z" fill="white"/>
<path d="M400.156 420.12C449.975 471.216 449.975 552.783 400.156 603.879L398.961 605.09L302.545 701.506L256 654.96L352.416 558.545C378.122 532.839 378.122 491.16 352.416 465.454L256 369.039L302.545 322.493L398.961 418.909L400.156 420.12Z" fill="white"/>
<path d="M671.583 465.455C645.877 491.161 645.877 532.839 671.583 558.546L767.999 654.961L721.454 701.507L625.038 605.091L623.842 603.88C574.024 552.783 574.024 471.217 623.842 420.121L625.038 418.91L721.454 322.494L767.999 369.04L671.583 465.455Z" fill="white"/>
<path d="M605.09 398.961L603.879 400.156C552.783 449.975 471.216 449.975 420.12 400.156L418.909 398.961L322.493 302.545L369.039 256L465.454 352.416C491.16 378.122 532.839 378.122 558.545 352.416L654.96 256L701.506 302.545L605.09 398.961Z" fill="white"/>
</svg>
